<?xml version="1.0" encoding="UTF-8"?>
<svg viewBox="0 0 500 500" xmlns="http://www.w3.org/2000/svg">
  <defs>
    <linearGradient id="bitcoinGradient" x1="0%" y1="0%" x2="100%" y2="100%">
      <stop offset="0%" style="stop-color:#FF8C00;stop-opacity:1" />
      <stop offset="50%" style="stop-color:#FF6B00;stop-opacity:1" />
      <stop offset="100%" style="stop-color:#E55100;stop-opacity:1" />
    </linearGradient>
    <filter id="shadow" x="-20%" y="-20%" width="140%" height="140%">
      <feDropShadow dx="2" dy="2" stdDeviation="3" flood-color="#00000020"/>
    </filter>
  </defs>
  
  <!-- Background circle -->
  <circle cx="250" cy="250" r="240" fill="url(#bitcoinGradient)" filter="url(#shadow)"/>
  
  <!-- Bitcoin symbol -->
  <path fill="#FFFFFF" d="M325.157,254.513c6.537-3.474,12.749-5.465,17.658-9.85c18.918-16.899,23.96-56.673-6.747-75.833
	c-9.566-5.969-19.77-10.393-30.77-14.907c1.819-14.731,7.709-28.516,9.622-43.603c-9.076-2.249-17.578-5.234-26.425-6.193
	c-3.617,14.177-7.085,27.769-10.674,41.837c-6.78-2.076-13.761-1.879-20.142-5.473c2.302-14.39,7.773-27.872,9.268-42.314
	c-9.322-1.464-17.216-5.094-26.265-5.485c-3.563,14.209-7.011,27.958-10.586,42.215c-17.944-2.75-34.419-8.921-52.52-12.239
	c-3.977,8.91-5.738,18.311-7.334,28.313c5.896,1.392,11.022,2.623,16.158,3.811c12.965,2.998,16.517,10.086,13.439,21.424
	c-2.19,8.065-4.166,16.189-6.182,24.301c-7.245,29.16-14.432,58.333-21.72,87.482c-1.642,6.567-5.734,8.706-12.398,7.731
	c-6.563-0.96-12.757-3.907-19.99-3.693c-3.136,10.032-9.378,18.871-11.588,29.946c17.236,4.391,33.911,8.639,51.344,13.08
	c-1.312,15.208-7.614,29.125-9.476,44.441c8.739,2.095,16.965,4.066,25.544,6.123c5.653-14.044,6.957-28.803,12.226-43.33
	c6.351,3.265,13.397,2.317,19.612,6.427c-3.387,14.003-6.762,27.952-10.178,42.077c8.986,3.216,17.753,4.528,26.758,6.77
	c3.645-14.604,7.169-28.728,10.578-42.386c2.123-1.091,3.676-0.888,5.143-0.574c14.113,3.021,28.39,3.726,42.676,2.14
	c12.368-1.373,23.343-6.088,32.148-15.372c9.791-10.323,14.71-22.952,17.078-36.535c1.93-11.065,1.436-22.277-5.06-32.071
	C341.263,265.099,334.27,259.243,325.157,254.513z M223.128,312.17c17.411,4.325,34.803,8.95,53.02,5.624
	c9.715-1.774,17.037-6.73,19.985-16.503c2.78-9.218,1.164-17.593-5.673-24.879c-7.11-7.576-16.254-11.514-25.682-14.807
	c-11.264-3.934-22.683-7.508-34.99-8.48c-4.716,19.168-9.293,37.773-13.972,56.788C218.797,310.842,220.933,311.625,223.128,312.17z
	 M284.628,231.846c9.628-1.368,17.612-7.738,19.958-16.393c2.869-10.583-0.337-19.865-8.902-26.178
	c-9.718-7.163-20.908-10.807-32.47-13.337c-4.307-0.943-8.544-3.454-13.756-1.759c-4.143,16.837-8.303,33.747-12.599,51.209
	C253.316,229.543,268.47,234.141,284.628,231.846z"/>
</svg>