<?xml version="1.0" ?>
<!-- Uploaded to: SVG Repo, www.svgrepo.com, Generator: SVG Repo Mixer Tools -->
<svg width="800px" height="800px" viewBox="0 0 64 64" id="Layer_1" version="1.1" xml:space="preserve" xmlns="http://www.w3.org/2000/svg" xmlns:xlink="http://www.w3.org/1999/xlink">
<style type="text/css">
	.st0{fill:#FFFFFF;}
	.st1{fill:#101820;}
</style>
<g>
<g>
<circle class="st0" cx="32" cy="32" r="32"/>
</g>
<g>
<path class="st1" d="M43.094,36.273c-0.055,0-0.11-0.009-0.165-0.028l-2.222-0.773c-0.261-0.091-0.398-0.376-0.308-0.637    s0.376-0.398,0.637-0.308l2.222,0.773c0.261,0.091,0.398,0.376,0.308,0.637C43.494,36.144,43.301,36.273,43.094,36.273z"/>
</g>
<g>
<path class="st1" d="M44.799,32.5c-0.082,0-0.164-0.02-0.241-0.062c-0.242-0.133-0.33-0.437-0.197-0.679l1.86-3.381l-4.945-0.824    l-1.382,2.676c-0.127,0.245-0.428,0.34-0.674,0.215c-0.245-0.127-0.341-0.429-0.215-0.674l1.55-3    c0.1-0.193,0.313-0.299,0.526-0.264l6,1c0.16,0.027,0.297,0.129,0.368,0.275c0.071,0.146,0.066,0.317-0.012,0.459l-2.2,4    C45.147,32.406,44.976,32.5,44.799,32.5z"/>
</g>
<g>
<path class="st1" d="M23,11.5c-0.276,0-0.5-0.224-0.5-0.5c0-1.774-1.761-3.626-2.5-4.326c-0.739,0.7-2.5,2.552-2.5,4.326    c0,0.276-0.224,0.5-0.5,0.5s-0.5-0.224-0.5-0.5c0-2.703,3.05-5.276,3.18-5.384c0.186-0.154,0.455-0.154,0.641,0    C20.45,5.724,23.5,8.297,23.5,11C23.5,11.276,23.276,11.5,23,11.5z"/>
</g>
<g>
<path class="st1" d="M18,17.5c-0.224,0-0.428-0.151-0.484-0.379l-1-4c-0.038-0.149-0.004-0.308,0.091-0.429    C16.701,12.571,16.846,12.5,17,12.5h3c1.378,0,2.5,1.122,2.5,2.5s-1.122,2.5-2.5,2.5c-0.276,0-0.5-0.224-0.5-0.5    s0.224-0.5,0.5-0.5c0.827,0,1.5-0.673,1.5-1.5s-0.673-1.5-1.5-1.5h-2.359l0.844,3.379c0.067,0.268-0.096,0.539-0.364,0.606    C18.081,17.495,18.04,17.5,18,17.5z"/>
</g>
<g>
<path class="st1" d="M24,13.5h-8c-0.276,0-0.5-0.224-0.5-0.5s0.224-0.5,0.5-0.5h8c0.276,0,0.5,0.224,0.5,0.5S24.276,13.5,24,13.5z    "/>
</g>
<g>
<path class="st1" d="M21,25.5c-0.24,0-0.452-0.173-0.493-0.418l-0.974-5.842l-1.887-1.887c-0.195-0.195-0.195-0.512,0-0.707    s0.512-0.195,0.707,0l2,2c0.074,0.074,0.123,0.168,0.14,0.271l1,6c0.045,0.272-0.139,0.53-0.411,0.575    C21.054,25.498,21.027,25.5,21,25.5z"/>
</g>
<g>
<path class="st1" d="M23.333,23.167c-0.217,0-0.417-0.143-0.48-0.362l-0.477-1.667c-0.076-0.266,0.078-0.542,0.343-0.619    c0.266-0.071,0.542,0.078,0.619,0.343l0.477,1.667c0.076,0.266-0.078,0.542-0.343,0.619C23.425,23.16,23.379,23.167,23.333,23.167    z"/>
</g>
<g>
<path class="st1" d="M22.856,21.5c-0.217,0-0.417-0.143-0.48-0.363l-0.857-3c-0.05-0.174-0.001-0.362,0.127-0.491l1.854-1.854V15    c0-0.276,0.224-0.5,0.5-0.5s0.5,0.224,0.5,0.5v1c0,0.133-0.053,0.26-0.146,0.354l-1.792,1.792l0.776,2.717    c0.076,0.266-0.078,0.542-0.344,0.618C22.948,21.494,22.902,21.5,22.856,21.5z"/>
</g>
<g>
<path class="st1" d="M20,26.5h-1c-0.276,0-0.5-0.224-0.5-0.5v-3c0-0.133,0.053-0.26,0.146-0.354l1.429-1.429    c0.195-0.195,0.512-0.195,0.707,0s0.195,0.512,0,0.707L19.5,23.207V25.5h0.293l3.707-3.707V21.5H23c-0.276,0-0.5-0.224-0.5-0.5    s0.224-0.5,0.5-0.5h1c0.276,0,0.5,0.224,0.5,0.5v1c0,0.133-0.053,0.26-0.146,0.354l-4,4C20.26,26.447,20.133,26.5,20,26.5z"/>
</g>
<g>
<path class="st1" d="M21,28.5h-1c-0.133,0-0.26-0.053-0.354-0.146l-1-1C18.553,27.26,18.5,27.133,18.5,27v-1    c0-0.276,0.224-0.5,0.5-0.5s0.5,0.224,0.5,0.5v0.793l0.707,0.707H21c0.276,0,0.5,0.224,0.5,0.5S21.276,28.5,21,28.5z"/>
</g>
<g>
<path class="st1" d="M24.75,24.5c-0.04,0-0.081-0.005-0.122-0.015c-0.268-0.067-0.431-0.338-0.364-0.606l0.205-0.821l-0.917-1.834    c-0.124-0.247-0.023-0.547,0.224-0.671c0.247-0.123,0.547-0.023,0.671,0.224l1,2c0.053,0.107,0.067,0.229,0.038,0.345l-0.25,1    C25.178,24.349,24.975,24.5,24.75,24.5z"/>
</g>
<g>
<path class="st1" d="M38,17.5c-0.13,0-0.258-0.051-0.354-0.146C34.793,14.5,33.622,14.5,32,14.5s-2.793,0-5.646,2.854    c-0.143,0.144-0.358,0.186-0.545,0.108C25.622,17.385,25.5,17.202,25.5,17v-2c0-0.133,0.053-0.26,0.146-0.354    C28.793,11.5,30.279,11.5,32,11.5s3.207,0,6.354,3.146C38.447,14.74,38.5,14.867,38.5,15v2c0,0.202-0.122,0.385-0.309,0.462    C38.129,17.488,38.064,17.5,38,17.5z M32,13.5c1.557,0,2.923,0,5.5,2.332v-0.624C34.752,12.5,33.593,12.5,32,12.5    s-2.752,0-5.5,2.708v0.624C29.077,13.5,30.443,13.5,32,13.5z"/>
</g>
<g>
<path class="st1" d="M33,12.5h-2c-0.147,0-0.287-0.064-0.381-0.177c-0.095-0.112-0.136-0.26-0.112-0.405l1-6    C31.547,5.677,31.755,5.5,32,5.5s0.453,0.177,0.493,0.418l1,6c0.024,0.145-0.017,0.293-0.112,0.405    C33.287,12.436,33.147,12.5,33,12.5z M31.59,11.5h0.819L32,9.042L31.59,11.5z"/>
</g>
<g>
<path class="st1" d="M37,14.5c-0.077,0-0.153-0.018-0.224-0.053l-0.151-0.076c-0.037-0.019-0.072-0.042-0.104-0.069    c-0.577-0.499-1.088-0.874-1.562-1.146c-0.125-0.071-0.212-0.192-0.241-0.333c-0.029-0.141,0.004-0.287,0.09-0.401L37.6,8.7    c0.14-0.188,0.391-0.252,0.604-0.157c0.213,0.095,0.332,0.326,0.286,0.555l-1,5c-0.03,0.153-0.13,0.283-0.271,0.351    C37.15,14.483,37.075,14.5,37,14.5z M35.935,12.587c0.235,0.157,0.478,0.335,0.73,0.536l0.412-2.059L35.935,12.587z"/>
</g>
<g>
<path class="st1" d="M27,14.5c-0.075,0-0.15-0.017-0.22-0.051c-0.14-0.068-0.24-0.198-0.271-0.351l-1-5    c-0.046-0.229,0.073-0.459,0.286-0.555C26.008,8.448,26.259,8.512,26.4,8.7l2.792,3.723c0.086,0.114,0.119,0.26,0.09,0.401    c-0.029,0.14-0.117,0.262-0.241,0.333c-0.475,0.272-0.985,0.647-1.563,1.146c-0.032,0.027-0.066,0.05-0.104,0.069l-0.151,0.076    C27.153,14.482,27.077,14.5,27,14.5z M26.922,11.063l0.412,2.059c0.253-0.2,0.496-0.378,0.731-0.536L26.922,11.063z"/>
</g>
<g>
<path class="st1" d="M26,20.5h-1c-0.276,0-0.5-0.224-0.5-0.5s0.224-0.5,0.5-0.5h1c3.635,0,5.534-3.687,5.553-3.724    c0.124-0.247,0.424-0.347,0.671-0.222c0.247,0.124,0.347,0.423,0.223,0.67C32.36,16.398,30.26,20.5,26,20.5z"/>
</g>
<g>
<path class="st1" d="M32,24.5c-2.481,0-4.5-2.019-4.5-4.5v-0.357c0-0.209,0.131-0.397,0.328-0.469    c2.44-0.896,3.713-3.374,3.726-3.398c0.072-0.143,0.209-0.243,0.367-0.269c0.157-0.025,0.32,0.027,0.433,0.139    C32.372,15.665,34.234,17.5,36,17.5c0.276,0,0.5,0.224,0.5,0.5v2C36.5,22.481,34.481,24.5,32,24.5z M28.5,19.982V20    c0,1.93,1.57,3.5,3.5,3.5s3.5-1.57,3.5-3.5v-1.535c-1.405-0.19-2.706-1.124-3.378-1.685C31.586,17.615,30.388,19.17,28.5,19.982z"/>
</g>
<g>
<path class="st1" d="M28,24.5c-0.128,0-0.256-0.049-0.354-0.146C25.524,22.231,25.5,17.212,25.5,17c0-0.276,0.224-0.5,0.5-0.5    c0.276,0,0.5,0.224,0.5,0.5c0,0.048,0.024,4.817,1.854,6.646c0.195,0.195,0.195,0.512,0,0.707C28.256,24.451,28.128,24.5,28,24.5z    "/>
</g>
<g>
<path class="st1" d="M36,24.5c-0.128,0-0.256-0.049-0.354-0.146c-0.195-0.195-0.195-0.512,0-0.707    c0.646-0.646,1.139-1.734,1.468-3.237c0.059-0.271,0.323-0.442,0.595-0.381c0.27,0.059,0.44,0.325,0.381,0.595    c-0.37,1.692-0.955,2.948-1.738,3.73C36.256,24.451,36.128,24.5,36,24.5z"/>
</g>
<g>
<path class="st1" d="M37.872,19.393c-0.02,0-0.039-0.001-0.059-0.003c-0.274-0.032-0.47-0.281-0.438-0.555    C37.498,17.79,37.5,17.008,37.5,17c0-0.276,0.224-0.5,0.5-0.5l0,0c0.276,0,0.5,0.224,0.5,0.5c0,0.034-0.001,0.844-0.132,1.951    C38.338,19.206,38.122,19.393,37.872,19.393z"/>
</g>
<g>
<path class="st1" d="M36.5,21.5h-0.642c-0.155,0-0.301-0.072-0.396-0.194c-0.095-0.122-0.127-0.282-0.088-0.432    C35.46,20.545,35.5,20.267,35.5,20v-2c0-0.276,0.224-0.5,0.5-0.5h0.5c1.103,0,2,0.897,2,2S37.603,21.5,36.5,21.5z M36.467,20.5    H36.5c0.551,0,1-0.449,1-1s-0.449-1-1-1V20C36.5,20.164,36.489,20.329,36.467,20.5z"/>
</g>
<g>
<path class="st1" d="M32,27.5c-1.378,0-2.5-1.122-2.5-2.5v-1.555c0-0.179,0.096-0.344,0.251-0.434    c0.156-0.089,0.347-0.088,0.5,0.001c1.109,0.646,2.388,0.646,3.497,0c0.154-0.09,0.345-0.091,0.5-0.001s0.251,0.254,0.251,0.434    V25c0,0.276-0.224,0.5-0.5,0.5s-0.5-0.224-0.5-0.5v-0.768c-0.969,0.355-2.031,0.355-3,0V25c0,0.827,0.673,1.5,1.5,1.5    c0.104,0,0.206-0.011,0.303-0.031c0.275-0.05,0.535,0.121,0.59,0.391c0.055,0.271-0.12,0.535-0.391,0.59    C32.34,27.482,32.172,27.5,32,27.5z"/>
</g>
<g>
<path class="st1" d="M25,23.5c-0.187,0-0.366-0.105-0.452-0.285c-0.119-0.25-0.013-0.548,0.237-0.667l1.863-0.887    c0.25-0.118,0.547-0.012,0.667,0.237c0.119,0.25,0.013,0.548-0.237,0.667l-1.863,0.887C25.146,23.484,25.072,23.5,25,23.5z"/>
</g>
<g>
<path class="st1" d="M23.849,34.076c-0.206,0-0.398-0.128-0.471-0.333l-0.915-2.576c-0.092-0.26,0.043-0.546,0.304-0.639    c0.258-0.093,0.546,0.044,0.639,0.304l0.915,2.576c0.092,0.26-0.043,0.546-0.304,0.639C23.961,34.066,23.905,34.076,23.849,34.076    z"/>
</g>
<g>
<path class="st1" d="M46,36.5h-2c-1.378,0-2.5-1.122-2.5-2.5s1.122-2.5,2.5-2.5h2c0.276,0,0.5,0.224,0.5,0.5v4    C46.5,36.276,46.276,36.5,46,36.5z M44,32.5c-0.827,0-1.5,0.673-1.5,1.5s0.673,1.5,1.5,1.5h1.5v-3H44z"/>
</g>
<g>
<path class="st1" d="M22,37.5c-0.051,0-0.102-0.008-0.151-0.023c-0.129-0.041-0.236-0.132-0.296-0.253l-1-2    c-0.08-0.161-0.068-0.352,0.031-0.501l1.333-2c0.153-0.229,0.462-0.292,0.693-0.139c0.23,0.153,0.292,0.464,0.139,0.693    l-1.172,1.759l0.64,1.279l12.407-6.681l1.929-3.858c0.124-0.247,0.423-0.347,0.671-0.224c0.247,0.124,0.347,0.424,0.224,0.671    l-2,4c-0.046,0.092-0.12,0.168-0.21,0.217l-13,7C22.164,37.48,22.082,37.5,22,37.5z"/>
</g>
<g>
<path class="st1" d="M33,29.5c-0.128,0-0.256-0.049-0.354-0.146c-0.195-0.195-0.195-0.512,0-0.707l1-1    c0.195-0.195,0.512-0.195,0.707,0s0.195,0.512,0,0.707l-1,1C33.256,29.451,33.128,29.5,33,29.5z"/>
</g>
<g>
<path class="st1" d="M23,34.5h-1.333c-0.276,0-0.5-0.224-0.5-0.5s0.224-0.5,0.5-0.5h1.215l1.895-0.947    c0.247-0.123,0.546-0.023,0.671,0.224c0.124,0.247,0.023,0.547-0.224,0.671l-2,1C23.154,34.482,23.078,34.5,23,34.5z"/>
</g>
<g>
<path class="st1" d="M21,30.5c-0.038,0-0.077-0.004-0.115-0.013c-0.145-0.034-0.266-0.13-0.333-0.263l-1-2    c-0.124-0.247-0.023-0.547,0.224-0.671c0.248-0.124,0.547-0.023,0.671,0.224l0.732,1.464l3.452-2.589l1.286-1.929    c0.153-0.229,0.462-0.292,0.693-0.139c0.23,0.153,0.292,0.464,0.139,0.693l-1.333,2c-0.031,0.047-0.071,0.089-0.116,0.123l-4,3    C21.212,30.465,21.107,30.5,21,30.5z"/>
</g>
<g>
<path class="st1" d="M24,41.5c-0.13,0-0.258-0.051-0.354-0.146l-1-1C22.553,40.26,22.5,40.133,22.5,40v-3.539    c0-0.276,0.224-0.5,0.5-0.5s0.5,0.224,0.5,0.5v3.332l0.614,0.614l6.6-2.829l3.317-3.316c0.195-0.195,0.512-0.195,0.707,0    s0.195,0.512,0,0.707l-3.385,3.385c-0.045,0.045-0.098,0.081-0.157,0.106l-7,3C24.133,41.487,24.066,41.5,24,41.5z"/>
</g>
<g>
<path class="st1" d="M25,38.5c-0.184,0-0.36-0.101-0.448-0.276c-0.124-0.247-0.023-0.547,0.224-0.671l4-2L32.7,32.6    c0.221-0.166,0.534-0.121,0.7,0.1c0.166,0.221,0.121,0.534-0.1,0.7l-4,3l-4.076,2.047C25.152,38.483,25.076,38.5,25,38.5z"/>
</g>
<g>
<path class="st1" d="M40,39.5c-0.13,0-0.258-0.051-0.354-0.146l-1.111-1.111c-0.195-0.195-0.195-0.512,0-0.707    s0.512-0.195,0.707,0l0.893,0.893l2.595-0.865l1.917-1.917c0.195-0.195,0.512-0.195,0.707,0s0.195,0.512,0,0.707l-2,2    c-0.055,0.055-0.122,0.096-0.195,0.121l-3,1C40.106,39.492,40.053,39.5,40,39.5z"/>
</g>
<g>
<path class="st1" d="M41,37.5h-2.2c-0.276,0-0.5-0.224-0.5-0.5s0.224-0.5,0.5-0.5H41c0.276,0,0.5,0.224,0.5,0.5    S41.276,37.5,41,37.5z"/>
</g>
<g>
<path class="st1" d="M26,46.5c-0.047,0-0.094-0.006-0.14-0.02c-0.134-0.039-0.245-0.132-0.308-0.256l-1-2    C24.518,44.154,24.5,44.078,24.5,44v-3.429c0-0.276,0.224-0.5,0.5-0.5s0.5,0.224,0.5,0.5v3.311l0.706,1.412l4.464-2.679    l2.644-3.173c0.177-0.212,0.492-0.24,0.705-0.064c0.212,0.177,0.241,0.492,0.064,0.705l-2.698,3.238    c-0.036,0.043-0.079,0.08-0.127,0.108l-5,3C26.179,46.476,26.09,46.5,26,46.5z"/>
</g>
<g>
<path class="st1" d="M27,42.5c-0.184,0-0.36-0.101-0.448-0.276c-0.124-0.247-0.023-0.547,0.224-0.671l4-2    c0.248-0.124,0.547-0.024,0.671,0.224c0.124,0.247,0.023,0.547-0.224,0.671l-4,2C27.152,42.483,27.076,42.5,27,42.5z"/>
</g>
<g>
<path class="st1" d="M37,46.5c-0.041,0-0.081-0.005-0.121-0.015l-4-1c-0.247-0.062-0.408-0.299-0.375-0.551l2-15    c0.037-0.274,0.288-0.466,0.562-0.43c0.274,0.037,0.466,0.288,0.43,0.562l-1.941,14.557l3.292,0.823l0.8-0.8    C37.74,44.553,37.867,44.5,38,44.5h0.5V39l-0.992-9.895l-0.903-2.71l-2.432-0.811l-3.782,4.728    c-0.061,0.075-0.141,0.131-0.232,0.162l-5,1.667c-0.263,0.088-0.545-0.054-0.632-0.316c-0.087-0.262,0.054-0.545,0.316-0.632    l4.86-1.62l3.908-4.885c0.131-0.163,0.349-0.228,0.549-0.162l3,1c0.149,0.049,0.267,0.167,0.316,0.316l1,3    c0.012,0.035,0.02,0.072,0.023,0.108l1,10L39.5,45c0,0.276-0.224,0.5-0.5,0.5h-0.793l-0.854,0.854    C37.259,46.448,37.131,46.5,37,46.5z"/>
</g>
<g>
<path class="st1" d="M38,45.5c-0.184,0-0.36-0.101-0.448-0.276C37.21,44.538,35.5,41.064,35.5,40c0-0.471,0.198-2.176,0.588-5.067    c0.038-0.273,0.29-0.464,0.563-0.429c0.274,0.037,0.465,0.289,0.429,0.563C36.575,38.8,36.5,39.76,36.5,40    c0,0.608,1.139,3.159,1.947,4.776c0.124,0.247,0.023,0.547-0.224,0.671C38.152,45.483,38.076,45.5,38,45.5z"/>
</g>
<g>
<path class="st1" d="M30.5,46.5c-0.027,0-0.055-0.002-0.083-0.007c-0.272-0.045-0.457-0.303-0.411-0.575l0.5-3    c0.045-0.272,0.303-0.461,0.575-0.411c0.272,0.045,0.457,0.303,0.411,0.575l-0.5,3C30.953,46.327,30.741,46.5,30.5,46.5z"/>
</g>
<g>
<path class="st1" d="M45,54.5c-0.276,0-0.5-0.224-0.5-0.5v-3.5h-25V54c0,0.276-0.224,0.5-0.5,0.5s-0.5-0.224-0.5-0.5v-4    c0-0.276,0.224-0.5,0.5-0.5h26c0.276,0,0.5,0.224,0.5,0.5v4C45.5,54.276,45.276,54.5,45,54.5z"/>
</g>
<g>
<path class="st1" d="M43,50.5H21c-0.276,0-0.5-0.224-0.5-0.5v-2c0-0.276,0.224-0.5,0.5-0.5h22c0.276,0,0.5,0.224,0.5,0.5v2    C43.5,50.276,43.276,50.5,43,50.5z M21.5,49.5h21v-1h-21V49.5z"/>
</g>
<g>
<path class="st1" d="M39,46.5c-0.276,0-0.5-0.224-0.5-0.5v-1c0-0.276,0.224-0.5,0.5-0.5s0.5,0.224,0.5,0.5v1    C39.5,46.276,39.276,46.5,39,46.5z"/>
</g>
<g>
<path class="st1" d="M44,30.25c-0.04,0-0.081-0.005-0.122-0.015l-2-0.5c-0.268-0.067-0.431-0.338-0.364-0.606    c0.067-0.268,0.336-0.434,0.606-0.364l2,0.5c0.268,0.067,0.431,0.338,0.364,0.606C44.428,30.099,44.225,30.25,44,30.25z"/>
</g>
<g>
<path class="st1" d="M48.268,16.5c-0.276,0-0.5-0.224-0.5-0.5c0-0.827-0.673-1.5-1.5-1.5c-0.534,0-1.032,0.287-1.299,0.75    c-0.138,0.238-0.444,0.32-0.683,0.182c-0.239-0.138-0.321-0.444-0.182-0.683c0.445-0.771,1.275-1.249,2.165-1.249    c1.378,0,2.5,1.122,2.5,2.5C48.768,16.276,48.544,16.5,48.268,16.5z"/>
</g>
<g>
<path class="st1" d="M48.268,16.5c-0.276,0-0.5-0.224-0.5-0.5c0-1.378,1.122-2.5,2.5-2.5c0.89,0,1.72,0.479,2.165,1.249    c0.139,0.239,0.057,0.545-0.182,0.683c-0.24,0.138-0.545,0.056-0.683-0.182c-0.268-0.463-0.766-0.75-1.3-0.75    c-0.827,0-1.5,0.673-1.5,1.5C48.768,16.276,48.544,16.5,48.268,16.5z"/>
</g>
<g>
<path class="st1" d="M49.268,16.5h-2c-0.276,0-0.5-0.224-0.5-0.5s0.224-0.5,0.5-0.5h2c0.276,0,0.5,0.224,0.5,0.5    S49.544,16.5,49.268,16.5z"/>
</g>
<g>
<path class="st1" d="M18,36.5h-5c-0.276,0-0.5-0.224-0.5-0.5s0.224-0.5,0.5-0.5h5c0.276,0,0.5,0.224,0.5,0.5S18.276,36.5,18,36.5z    "/>
</g>
<g>
<path class="st1" d="M51,43.5h-2c-0.276,0-0.5-0.224-0.5-0.5s0.224-0.5,0.5-0.5h2c0.276,0,0.5,0.224,0.5,0.5S51.276,43.5,51,43.5z    "/>
</g>
<g>
<path class="st1" d="M27,29.167c-0.209,0-0.404-0.132-0.474-0.342c-0.087-0.262,0.054-0.545,0.316-0.632l2-0.667    c0.266-0.089,0.545,0.055,0.632,0.316c0.087,0.262-0.054,0.545-0.316,0.632l-2,0.667C27.105,29.158,27.052,29.167,27,29.167z"/>
</g>
<g>
<path class="st1" d="M18,47.968c-0.068,0-0.138-0.014-0.205-0.044c-1.16-0.522-2.904-1.026-4.636-0.449    c-3.159,1.055-5.292,0.018-5.382-0.027c-0.247-0.124-0.347-0.424-0.224-0.671c0.125-0.247,0.424-0.346,0.671-0.224    c0.016,0.008,1.874,0.889,4.618-0.027c2.037-0.68,4.042-0.111,5.364,0.486c0.252,0.113,0.364,0.41,0.25,0.661    C18.372,47.858,18.19,47.968,18,47.968z"/>
</g>
<g>
<path class="st1" d="M53.612,49.384c-0.825,0-1.803-0.244-2.889-0.968c-1.757-1.171-3.506-1.254-4.664-1.119    c-0.278,0.029-0.523-0.164-0.555-0.438c-0.032-0.274,0.164-0.523,0.438-0.555c1.328-0.156,3.327-0.06,5.336,1.28    c2.628,1.751,4.352,0.08,4.369,0.063c0.195-0.195,0.512-0.195,0.707,0s0.195,0.512,0,0.707    C56.338,48.369,55.294,49.384,53.612,49.384z"/>
</g>
<g>
<path class="st1" d="M52,52.834c-0.033,0-0.066-0.003-0.099-0.01c-0.41-0.083-0.788-0.209-1.125-0.377    c-1.066-0.533-2.137-0.765-2.847-0.866c-0.273-0.039-0.463-0.292-0.425-0.565c0.04-0.273,0.296-0.461,0.565-0.425    c0.784,0.111,1.967,0.368,3.153,0.961c0.257,0.128,0.552,0.227,0.875,0.292c0.271,0.054,0.446,0.318,0.392,0.589    C52.442,52.67,52.234,52.834,52,52.834z"/>
</g>
<g>
<path class="st1" d="M16,52.086c-0.056,0-0.113-0.009-0.168-0.029C15.122,51.803,14.055,51.5,13,51.5c-0.276,0-0.5-0.224-0.5-0.5    s0.224-0.5,0.5-0.5c1.199,0,2.385,0.335,3.168,0.616c0.26,0.093,0.396,0.379,0.302,0.639C16.397,51.959,16.205,52.086,16,52.086z"/>
</g>
<g>
<path class="st1" d="M41,52.5H24c-0.276,0-0.5-0.224-0.5-0.5s0.224-0.5,0.5-0.5h17c0.276,0,0.5,0.224,0.5,0.5S41.276,52.5,41,52.5    z"/>
</g>
</g>
</svg>