<svg width="34" height="33" viewBox="0 0 34 33" fill="none" xmlns="http://www.w3.org/2000/svg">
<path d="M30.9351 7.97907H27.1673C26.0048 7.97907 25.0629 7.03825 25.0629 5.87712V2.10195C25.0629 0.940815 24.1209 0 22.9584 0H10.0871C8.92462 0 7.98268 0.940815 7.98268 2.10195V5.87116C7.98268 7.0323 7.04073 7.97311 5.87821 7.97311H2.10447C0.941944 7.97311 0 8.91393 0 10.0751V18.6972C0 19.8583 0.941944 20.7992 2.10447 20.7992H5.87224C7.03477 20.7992 7.97671 19.8583 7.97671 18.6972V10.0751C7.97671 8.91393 8.91866 7.97311 10.0812 7.97311H22.9524C24.115 7.97311 25.0569 8.91393 25.0569 10.0751V22.9071C25.0569 24.0682 24.115 25.009 22.9524 25.009H14.2961C13.1336 25.009 12.1916 25.9498 12.1916 27.111V30.8802C12.1916 32.0413 13.1336 32.9821 14.2961 32.9821H22.9524C24.115 32.9821 25.0569 32.0413 25.0569 30.8802V27.111C25.0569 25.9498 25.9988 25.009 27.1614 25.009H30.9291C32.0917 25.009 33.0336 24.0682 33.0336 22.9071V10.0751C33.0336 8.91393 32.0917 7.97311 30.9291 7.97311L30.9351 7.97907Z" fill="#7747FF"/>
<path d="M5.87821 25.0209H2.10447C0.942203 25.0209 0 25.962 0 27.1228V30.898C0 32.0589 0.942203 33 2.10447 33H5.87821C7.04047 33 7.98268 32.0589 7.98268 30.898V27.1228C7.98268 25.962 7.04047 25.0209 5.87821 25.0209Z" fill="#7747FF"/>
<path d="M18.7435 12.1883H14.2961C13.1339 12.1883 12.1917 13.1294 12.1917 14.2902V18.7085C12.1917 19.8694 13.1339 20.8105 14.2961 20.8105H18.7435C19.9058 20.8105 20.848 19.8694 20.848 18.7085V14.2902C20.848 13.1294 19.9058 12.1883 18.7435 12.1883Z" fill="#7747FF"/>
</svg>
