<svg width="24" height="24" viewBox="0 0 24 24" fill="none" xmlns="http://www.w3.org/2000/svg">
<g clip-path="url(#clip0_4_495)">
<path d="M10.5776 12.0024L0.657 22.7555L0.355031 23.0861C0.167297 22.8086 0.0407813 22.478 0.0122344 22.1108C0.00407813 22.0455 0 21.9801 0 21.9149V2.08588C0 1.64113 0.134672 1.24119 0.355031 0.914612L10.5776 12.0024Z" fill="#3A9BC8"/>
<path d="M15.038 7.16251L10.5776 12.0025L0.35498 0.914632C0.934449 0.065866 2.1179 -0.297275 3.12182 0.282194L15.038 7.16251Z" fill="#9BCD83"/>
<path d="M21.3308 12.0595C21.3144 12.737 20.9676 13.4144 20.2942 13.802L15.038 16.8382L10.5776 12.0024L15.038 7.16248L18.3436 9.0724L20.2942 10.1986C21.0084 10.6109 21.3553 11.3372 21.3308 12.0595Z" fill="#EEB84C"/>
<path d="M0.355835 23.0855C0.935585 23.9347 2.11829 24.2967 3.12034 23.7182L15.0363 16.8384L10.5759 12.0005L0.355835 23.0855Z" fill="#B43F70"/>
<path opacity="0.2" d="M21.2844 11.5522C21.1694 11.0123 20.8399 10.5136 20.2942 10.1986L18.3435 9.07243L15.038 7.16251L3.12187 0.282194C2.11795 -0.297275 0.9345 0.065866 0.355031 0.914632C0.134672 1.24121 0 1.64115 0 2.0859V13.5103C1.71942 13.6562 3.47934 13.7327 5.27114 13.7327C7.52039 13.7327 9.71723 13.6088 11.8485 13.3809L10.5817 12.0069L11.8491 13.3809C15.1869 13.0242 18.3547 12.4008 21.2844 11.5522Z" fill="white"/>
</g>
<defs>
<clipPath id="clip0_4_495">
<rect width="24" height="24" fill="white"/>
</clipPath>
</defs>
</svg>
