<svg width="24" height="24" viewBox="0 0 24 24" fill="none" xmlns="http://www.w3.org/2000/svg">
  <!-- Casco do navio -->
  <path d="M4 16C4 16 6 14 12 14C18 14 20 16 20 16L19 19C19 19 17 18 12 18C7 18 5 19 5 19L4 16Z" fill="currentColor" stroke="currentColor" stroke-width="0.5"/>
  
  <!-- Mastro principal -->
  <line x1="12" y1="14" x2="12" y2="4" stroke="currentColor" stroke-width="1.5" stroke-linecap="round"/>
  
  <!-- Mastro secundário -->
  <line x1="8" y1="14" x2="8" y2="6" stroke="currentColor" stroke-width="1" stroke-linecap="round"/>
  
  <!-- Vela principal -->
  <path d="M12 4C12 4 16 5 16 8C16 11 12 12 12 12" fill="currentColor" stroke="currentColor" stroke-width="0.5"/>
  
  <!-- Vela secundária -->
  <path d="M8 6C8 6 11 6.5 11 9C11 11.5 8 12 8 12" fill="currentColor" stroke="currentColor" stroke-width="0.5"/>
  
  <!-- Bandeira no topo -->
  <path d="M12 4L12 2L15 3L12 4Z" fill="currentColor"/>
  
  <!-- Ondas -->
  <path d="M2 20C3 19 4 20 5 19C6 20 7 19 8 20C9 19 10 20 11 19C12 20 13 19 14 20C15 19 16 20 17 19C18 20 19 19 20 20C21 19 22 20 22 20" stroke="currentColor" stroke-width="1" stroke-linecap="round" fill="none"/>
  
  <!-- Detalhes do casco -->
  <circle cx="6" cy="17" r="0.5" fill="currentColor"/>
  <circle cx="18" cy="17" r="0.5" fill="currentColor"/>
  
  <!-- Cordas -->
  <line x1="8" y1="6" x2="12" y2="8" stroke="currentColor" stroke-width="0.5" opacity="0.7"/>
  <line x1="12" y1="6" x2="16" y2="8" stroke="currentColor" stroke-width="0.5" opacity="0.7"/>
</svg>